<svg width="41" height="28" viewBox="0 0 41 28" fill="none" xmlns="http://www.w3.org/2000/svg">
<rect width="41" height="28" rx="4" fill="#7D88F2"/>
<path d="M20.2689 20.2775C20.3289 20.3287 20.3939 20.38 20.4576 20.43C19.1906 21.271 17.7034 21.7189 16.1826 21.7175C15.169 21.7183 14.1651 21.5193 13.2284 21.1318C12.2917 20.7444 11.4406 20.1761 10.7237 19.4594C10.0068 18.7428 9.43823 17.8918 9.05047 16.9553C8.66271 16.0187 8.46337 15.0149 8.46387 14.0012C8.46374 12.6051 8.84225 11.2351 9.55911 10.0371C10.276 8.83912 11.3043 7.85798 12.5347 7.19817C13.765 6.53836 15.1513 6.2246 16.5458 6.29029C17.9404 6.35598 19.291 6.79867 20.4539 7.57122C20.3914 7.62497 20.3289 7.67372 20.2814 7.72872C19.3803 8.50674 18.6574 9.46966 18.1617 10.552C17.6661 11.6344 17.4093 12.8108 17.4089 14.0012C17.4089 16.4075 18.4501 18.695 20.2689 20.2775ZM25.7201 6.28372C24.2007 6.28076 22.7146 6.72885 21.4501 7.57122C21.5114 7.62497 21.5739 7.67372 21.6214 7.72872C23.4489 9.30747 24.4951 11.5962 24.4951 14.0012C24.4951 16.4062 23.4514 18.6925 21.6351 20.2775C21.5739 20.3287 21.5089 20.38 21.4464 20.43C22.7123 21.2713 24.1989 21.7193 25.7189 21.7175C26.7405 21.7306 27.7546 21.5406 28.7023 21.1587C29.65 20.7768 30.5124 20.2106 31.2395 19.4928C31.9666 18.7749 32.544 17.9199 32.9381 16.9772C33.3322 16.0345 33.5351 15.023 33.5352 14.0012C33.5353 12.9795 33.3325 11.9679 32.9386 11.0251C32.5446 10.0824 31.9674 9.22726 31.2404 8.50933C30.5134 7.7914 29.6511 7.22498 28.7035 6.84293C27.7558 6.46088 26.7418 6.2708 25.7201 6.28372ZM20.9514 7.93872C20.0324 8.6593 19.2896 9.57971 18.7793 10.6301C18.269 11.6806 18.0047 12.8334 18.0064 14.0012C18.0039 15.1697 18.2679 16.3233 18.7782 17.3745C19.2885 18.4256 20.0317 19.3466 20.9514 20.0675C21.8707 19.3463 22.6138 18.4253 23.1243 17.3742C23.6348 16.3232 23.8992 15.1697 23.8976 14.0012C23.8993 12.8333 23.6349 11.6803 23.1244 10.6298C22.6139 9.57938 21.8707 8.65904 20.9514 7.93872Z" fill="white"/>
</svg>
